# xmcd CD database file
#
# Track frame offsets:
#	150
#	12630
#	32090
#	57390
#	80700
#	91095
#	107550
#	121362
#	125692
#	142715
#	160971
#	171390
#	184910
#	209954
#	224784
#	244700
#	253687
#	264073
#	289864
#	301938
#
# Disc length: 4165 seconds
#
# Revision: 2
# Processed by: cddbd v1.4PL0 Copyright (c) Steve Scherf et al.
# Submitted via: CDex 1.50
#
DISCID=2e104314
DTITLE=Eric Clapton and The Yardbirds - ...The Beginning
DYEAR=2001
DGENRE=Blues
TTITLE0=Good Morning Little Schoolgirl
TTITLE1=New York City Blues
TTITLE2=My Girl Sloopy
TTITLE3=23 Hours Too Long
TTITLE4=A Certain Girl
TTITLE5=I Ain't Done Wrong
TTITLE6=Jeff's Blues
TTITLE7=Slow Walk
TTITLE8=I Don't Care No More
TTITLE9=Mr. Downchild
TTITLE10=Honey In Your Hips
TTITLE11=Pretty Girl
TTITLE12=Smokestack Lightnin'
TTITLE13=You're A Better Man Than I
TTITLE14=I'm A Man
TTITLE15=I Ain't Got You
TTITLE16=Let It Rock
TTITLE17=Take It Easy Baby
TTITLE18=Pounds And Stomps
TTITLE19=I Wish You Would
EXTD=YEAR: 2001
EXTT0=
EXTT1=
EXTT2=
EXTT3=
EXTT4=
EXTT5=
EXTT6=
EXTT7=
EXTT8=
EXTT9=
EXTT10=
EXTT11=
EXTT12=
EXTT13=
EXTT14=
EXTT15=
EXTT16=
EXTT17=
EXTT18=
EXTT19=
PLAYORDER=
